first trial
nRows=25
nColumns=38

# SIMM Motion File Header:
name Sujet_05_velo_100.mvnx
datacolumns 38
datarows 25
otherdata 1
range 4.0000 4.4000
endheader
time pelvis_tilt  pelvis_list  pelvis_rotation  pelvis_tx  pelvis_ty  pelvis_tz  hip_flexion_r  hip_adduction_r  hip_rotation_r  knee_angle_r  ankle_angle_r  subtalar_angle_r  mtp_angle_r  hip_flexion_l  hip_adduction_l  hip_rotation_l  knee_angle_l  ankle_angle_l  subtalar_angle_l  mtp_angle_l  lumbar_extension  lumbar_bending  lumbar_rotation  arm_flex_r  arm_add_r  arm_rot_r  elbow_flex_r  pro_sup_r  wrist_flex_r  wrist_dev_r  arm_flex_l  arm_add_l  arm_rot_l  elbow_flex_l  pro_sup_l  wrist_flex_l  wrist_dev_l
4.0000	-6.2790	0.8703	-85.2337	0.0000	1.2500	-0.0000	60.8595	-11.7623	-23.8282	56.1754	-11.0105	7.1655	-0.0000	52.4204	-11.3135	-21.6356	86.9638	-9.7457	18.5547	-0.0000	-22.4832	0.7318	-1.1802	89.1111	-8.7592	18.0142	5.9086	73.8185	-55.6847	-38.6529	100.8793	-13.0819	24.7613	-2.5547	50.5806	-34.5230	-18.8991	
4.0170	-5.9610	1.5654	-84.6768	0.0000	1.2500	-0.0000	55.5293	-11.5321	-25.5532	49.5391	-12.7015	7.5795	-0.0000	56.2290	-11.0864	-20.9171	93.0955	-9.1617	18.1134	0.0000	-22.4700	0.2669	-1.4689	88.5053	-8.8035	17.3039	6.1907	73.6939	-55.7520	-38.5004	100.8131	-12.6054	24.8292	-2.5238	51.5752	-34.4881	-18.6688	
4.0330	-5.6596	2.1044	-84.1298	0.0000	1.2500	-0.0000	49.9887	-11.2656	-26.8833	43.4013	-14.4903	7.7497	0.0000	60.2721	-10.9235	-20.4238	98.5581	-8.6430	17.6033	-0.0000	-22.4671	-0.1452	-1.7487	87.9084	-8.8967	16.3386	6.5885	73.7962	-55.7549	-38.2890	100.6152	-12.0627	24.7037	-2.3388	52.8458	-34.4473	-18.3662	
4.0500	-5.4729	2.6237	-83.6887	0.0000	1.2500	-0.0000	45.1569	-10.9667	-27.7895	38.5131	-16.2724	7.8328	0.0000	64.1797	-10.7057	-19.7802	102.6975	-7.7815	16.9019	-0.0000	-22.4569	-0.5182	-1.9781	87.4553	-9.0584	15.5308	6.9550	73.8554	-55.6921	-38.1463	100.4273	-11.5930	24.6085	-2.1030	53.8739	-34.3740	-18.1045	
4.0660	-5.4496	3.1865	-83.3657	0.0000	1.2500	-0.0000	41.2298	-10.6942	-28.1104	34.9481	-18.2969	7.9360	-0.0000	68.0088	-10.3468	-18.7839	105.2851	-6.2215	15.7890	-0.0000	-22.4231	-0.8588	-2.1418	87.1899	-9.3364	14.9829	7.2596	73.8289	-55.5208	-38.1277	100.2535	-11.2141	24.6123	-1.7833	54.4851	-34.2199	-17.8877	
4.0830	-5.5442	3.7334	-83.1443	0.0000	1.2500	-0.0000	37.9883	-10.5272	-27.9911	32.6195	-20.3337	8.0061	0.0000	71.7031	-9.9089	-17.6253	106.5356	-4.3036	14.4642	0.0000	-22.3781	-1.1591	-2.2570	87.0688	-9.6892	14.5890	7.5313	73.7597	-55.2841	-38.1768	100.0966	-10.9049	24.6532	-1.4164	54.8523	-34.0328	-17.7105	
4.1000	-5.7131	4.2165	-83.0785	0.0000	1.2500	-0.0000	35.7414	-10.4969	-27.8509	31.9718	-21.5239	7.8802	0.0000	74.7296	-9.5053	-16.4965	106.4460	-2.6716	13.4347	-0.0000	-22.3458	-1.4118	-2.3314	87.1022	-10.0062	14.4494	7.7100	73.5090	-55.1103	-38.2534	100.1035	-10.7364	24.7620	-1.2081	54.9781	-33.9291	-17.6724	
4.1170	-5.9908	4.7265	-83.2262	0.0000	1.2500	-0.0000	34.6785	-10.6587	-27.9592	33.2462	-21.3282	7.3328	-0.0000	77.0437	-9.2066	-15.1892	104.9007	-1.5056	12.8764	-0.0000	-22.3343	-1.6632	-2.3719	87.3253	-10.2702	14.6980	7.7934	72.8804	-55.0751	-38.3702	100.3998	-10.7630	25.0677	-1.2918	54.7481	-33.9813	-17.8746	
4.1340	-6.3472	5.1708	-83.5280	0.0000	1.2500	-0.0000	34.6182	-10.9421	-28.0266	36.1677	-20.2789	6.4820	0.0000	78.6894	-8.9688	-13.8590	102.0458	-0.6320	12.6101	0.0000	-22.3332	-1.8667	-2.3727	87.7055	-10.5068	15.2036	7.7799	72.0693	-55.1022	-38.5151	100.8628	-10.9320	25.4415	-1.5288	54.2774	-34.1169	-18.2163	
4.1500	-6.6396	5.2286	-83.8655	0.0000	1.2500	-0.0000	35.3212	-11.1524	-27.6254	40.4063	-19.0824	5.6425	-0.0000	79.2772	-8.7723	-13.2321	98.2524	-0.1710	12.6032	-0.0000	-22.3398	-1.8756	-2.3191	88.1545	-10.6622	15.6721	7.6144	71.5251	-55.0934	-38.6116	101.2657	-11.1491	25.5261	-1.7168	53.9127	-34.2344	-18.4948	
4.1670	-6.8237	4.7049	-84.1951	0.0000	1.2500	-0.0000	36.7940	-11.1594	-26.5075	46.2228	-17.6895	4.8801	-0.0000	78.6109	-8.5731	-13.7469	93.4427	-0.0864	12.8399	0.0000	-22.3579	-1.5997	-2.1891	88.6941	-10.7117	15.9873	7.2401	71.4319	-54.9811	-38.6189	101.5531	-11.4068	24.9955	-1.7218	53.9108	-34.2621	-18.6075	
4.1830	-6.9357	3.7953	-84.5651	0.0000	1.2500	-0.0000	39.0436	-11.0425	-24.9545	53.3307	-16.1799	4.0855	-0.0000	76.9067	-8.4149	-14.9736	87.6556	-0.4134	13.3132	-0.0000	-22.3890	-1.1301	-2.0024	89.3027	-10.6669	16.2663	6.7177	71.6071	-54.8333	-38.5774	101.7745	-11.7097	24.1738	-1.6804	54.0146	-34.2716	-18.6567	
4.2000	-6.9508	2.7667	-84.9956	0.0000	1.2500	-0.0000	41.8258	-10.9301	-23.3328	60.6135	-15.3742	3.3770	0.0000	74.3934	-8.4171	-16.3565	81.4220	-1.3911	14.0502	0.0000	-22.4272	-0.5905	-1.8069	89.8271	-10.5243	16.5619	6.1725	71.9509	-54.7559	-38.5344	101.8664	-11.9759	23.6797	-1.7944	53.7997	-34.3766	-18.7471	
4.2160	-6.8273	1.6223	-85.4860	0.0000	1.2500	-0.0000	45.1816	-10.8349	-21.6246	68.0368	-15.8375	2.7483	0.0000	70.9851	-8.6516	-17.8205	74.6843	-3.3465	15.2586	-0.0000	-22.4682	0.0270	-1.6119	90.1861	-10.2599	16.8821	5.5729	72.4981	-54.8017	-38.5335	101.7792	-12.1449	23.9569	-2.2391	52.8676	-34.6756	-18.9480	
4.2330	-6.6008	0.3623	-86.0300	0.0000	1.2500	-0.0000	49.0760	-10.6964	-19.8943	75.6253	-16.9481	2.2552	0.0000	66.7631	-9.0167	-19.5236	67.4638	-5.9178	16.7382	-0.0000	-22.5221	0.7150	-1.4109	90.4550	-9.8974	17.2111	4.9486	73.2144	-54.9182	-38.5314	101.5665	-12.2730	24.5623	-2.8575	51.6116	-35.0706	-19.1891	
4.2500	-6.3680	-0.7516	-86.6401	0.0000	1.2500	-0.0000	53.1323	-10.5962	-18.5751	82.4276	-17.7098	2.1344	0.0000	62.1939	-9.3842	-21.2478	60.4977	-8.3676	17.9505	-0.0000	-22.5982	1.3261	-1.2281	90.7165	-9.5101	17.5678	4.5158	73.8956	-55.0543	-38.4465	101.3247	-12.4562	24.7856	-3.3302	50.8019	-35.3802	-19.3671	
4.2660	-6.1321	-1.6334	-87.3954	0.0000	1.2500	-0.0000	57.3349	-10.6246	-17.9399	88.2706	-17.8992	2.7445	-0.0000	57.0968	-9.7145	-23.0679	53.7651	-10.4610	18.6764	0.0000	-22.7136	1.8089	-1.0779	91.0030	-9.0833	18.0310	4.4350	74.4444	-55.2199	-38.1823	101.0914	-12.7500	24.1867	-3.5146	50.9202	-35.5361	-19.4317	
4.2830	-5.8910	-2.3684	-88.2186	0.0000	1.2500	-0.0000	61.6782	-10.7618	-17.6938	93.3615	-17.7047	3.7560	0.0000	51.6449	-9.9513	-24.9430	47.3696	-12.4734	19.1657	-0.0000	-22.8478	2.2129	-0.9445	91.2799	-8.6309	18.5222	4.5416	74.9533	-55.4040	-37.8352	100.8246	-13.1027	23.2054	-3.5311	51.4902	-35.6064	-19.4344	
4.3000	-5.7420	-2.9573	-88.8960	0.0000	1.2500	-0.0000	65.8069	-10.9303	-17.3553	97.3489	-16.7917	4.3801	0.0000	46.8330	-10.0567	-26.3828	42.2736	-14.4914	19.6216	0.0000	-22.9469	2.5434	-0.8040	91.5382	-8.2741	18.8319	4.5650	75.5048	-55.5253	-37.6137	100.5041	-13.4479	22.4512	-3.4405	51.8492	-35.6151	-19.4263	
4.3160	-5.7368	-3.3633	-89.3721	0.0000	1.2500	-0.0000	69.7733	-11.0979	-16.7016	100.2084	-14.6027	4.1559	-0.0000	42.8665	-10.0821	-26.9924	38.6591	-16.8890	20.1556	0.0000	-22.9735	2.7867	-0.6356	91.7635	-8.0939	18.7928	4.4165	76.2443	-55.5363	-37.6055	100.0162	-13.7667	22.1165	-3.1925	51.7693	-35.5361	-19.4047	
4.3330	-5.8323	-3.6277	-89.7064	0.0000	1.2500	-0.0000	73.5391	-11.2560	-15.9000	101.9715	-11.7303	3.5453	-0.0000	39.5247	-10.1409	-27.0838	36.3500	-19.2988	20.6644	0.0000	-22.9590	2.9585	-0.4600	91.9793	-8.0169	18.5789	4.1808	77.0304	-55.4857	-37.7233	99.4793	-14.0756	22.0087	-2.8406	51.4766	-35.3952	-19.3715	
4.3500	-5.9856	-3.8705	-89.8575	0.0000	1.2500	-0.0000	76.6219	-11.3521	-15.0434	102.3717	-9.5958	3.0967	-0.0000	37.1644	-10.3622	-27.1987	35.7420	-20.6840	21.0015	0.0000	-22.9512	3.1083	-0.3151	92.2360	-7.9330	18.4949	3.8606	77.5197	-55.4369	-37.9151	99.2263	-14.3597	22.1585	-2.6065	50.9908	-35.2955	-19.3861	
4.3670	-6.2288	-4.2114	-89.7963	0.0000	1.2500	-0.0000	79.0344	-11.3739	-13.8852	101.1725	-9.0008	2.9435	-0.0000	35.9898	-10.8742	-27.6382	37.1258	-20.3438	21.0562	0.0000	-22.9727	3.2921	-0.1910	92.6126	-7.7719	18.7775	3.3877	77.4740	-55.4232	-38.2052	99.4823	-14.6461	22.7636	-2.5941	50.0901	-35.2908	-19.5096	
4.3840	-6.5326	-4.5290	-89.5529	0.0000	1.2500	-0.0000	80.7567	-11.3550	-12.6521	98.5884	-9.1147	2.8626	-0.0000	35.8002	-11.5580	-28.0822	40.1848	-18.9730	20.9173	0.0000	-22.9988	3.4537	-0.0970	93.0294	-7.6072	19.1909	2.8344	77.1241	-55.4077	-38.5690	100.0240	-14.9184	23.6276	-2.6937	48.9993	-35.3278	-19.6814	
4.4000	-6.7577	-4.5819	-89.1725	0.0000	1.2500	-0.0000	81.2589	-11.3666	-12.1571	95.0589	-8.9354	2.8947	0.0000	36.3511	-12.1323	-28.1449	44.4159	-17.6218	20.7366	-0.0000	-23.0083	3.4743	-0.1005	93.2986	-7.5410	19.3278	2.4298	76.8374	-55.3521	-38.8832	100.5105	-15.0849	24.1890	-2.8163	48.4068	-35.3482	-19.7785	
